<svg width="20" height="20" viewBox="0 0 989 899" fill="none" xmlns="http://www.w3.org/2000/svg">
<rect width="989" height="899" rx="90" fill="black"/>
<path d="M260.66 565.681H274.35V568.012H260.66V565.681ZM260.956 577.632H276.533V580H258.218V554.1H275.978V556.468H260.956V577.632ZM306.686 560.39C308.265 560.39 309.634 560.698 310.793 561.315C311.977 561.907 312.89 562.82 313.531 564.053C314.197 565.286 314.53 566.84 314.53 568.715V580H311.903V568.974C311.903 566.927 311.41 565.385 310.423 564.349C309.461 563.288 308.092 562.758 306.316 562.758C304.984 562.758 303.825 563.042 302.838 563.609C301.876 564.152 301.124 564.953 300.581 566.014C300.063 567.05 299.804 568.308 299.804 569.788V580H297.177V568.974C297.177 566.927 296.684 565.385 295.697 564.349C294.71 563.288 293.329 562.758 291.553 562.758C290.246 562.758 289.099 563.042 288.112 563.609C287.125 564.152 286.361 564.953 285.818 566.014C285.3 567.05 285.041 568.308 285.041 569.788V580H282.414V560.575H284.93V565.829L284.523 564.904C285.115 563.498 286.065 562.4 287.372 561.611C288.704 560.797 290.27 560.39 292.071 560.39C293.97 560.39 295.586 560.871 296.918 561.833C298.25 562.77 299.113 564.189 299.508 566.088L298.472 565.681C299.039 564.102 300.038 562.832 301.469 561.87C302.924 560.883 304.663 560.39 306.686 560.39ZM331.681 580.185C330.004 580.185 328.487 579.803 327.13 579.038C325.774 578.249 324.688 577.126 323.874 575.671C323.085 574.191 322.69 572.39 322.69 570.269C322.69 568.148 323.085 566.359 323.874 564.904C324.664 563.424 325.737 562.302 327.093 561.537C328.45 560.772 329.979 560.39 331.681 560.39C333.531 560.39 335.184 560.809 336.639 561.648C338.119 562.462 339.279 563.621 340.117 565.126C340.956 566.606 341.375 568.32 341.375 570.269C341.375 572.242 340.956 573.969 340.117 575.449C339.279 576.929 338.119 578.088 336.639 578.927C335.184 579.766 333.531 580.185 331.681 580.185ZM321.654 587.178V560.575H324.17V566.421L323.911 570.306L324.281 574.228V587.178H321.654ZM331.496 577.854C332.878 577.854 334.111 577.546 335.196 576.929C336.282 576.288 337.145 575.4 337.786 574.265C338.428 573.106 338.748 571.774 338.748 570.269C338.748 568.764 338.428 567.445 337.786 566.31C337.145 565.175 336.282 564.287 335.196 563.646C334.111 563.005 332.878 562.684 331.496 562.684C330.115 562.684 328.869 563.005 327.759 563.646C326.674 564.287 325.811 565.175 325.169 566.31C324.553 567.445 324.244 568.764 324.244 570.269C324.244 571.774 324.553 573.106 325.169 574.265C325.811 575.4 326.674 576.288 327.759 576.929C328.869 577.546 330.115 577.854 331.496 577.854ZM354.648 580.185C352.774 580.185 351.084 579.766 349.579 578.927C348.099 578.064 346.928 576.892 346.064 575.412C345.201 573.907 344.769 572.193 344.769 570.269C344.769 568.32 345.201 566.606 346.064 565.126C346.928 563.646 348.099 562.487 349.579 561.648C351.059 560.809 352.749 560.39 354.648 560.39C356.572 560.39 358.274 560.809 359.754 561.648C361.259 562.487 362.431 563.646 363.269 565.126C364.133 566.606 364.564 568.32 364.564 570.269C364.564 572.193 364.133 573.907 363.269 575.412C362.431 576.892 361.259 578.064 359.754 578.927C358.25 579.766 356.548 580.185 354.648 580.185ZM354.648 577.854C356.054 577.854 357.3 577.546 358.385 576.929C359.471 576.288 360.322 575.4 360.938 574.265C361.58 573.106 361.9 571.774 361.9 570.269C361.9 568.74 361.58 567.408 360.938 566.273C360.322 565.138 359.471 564.263 358.385 563.646C357.3 563.005 356.067 562.684 354.685 562.684C353.304 562.684 352.071 563.005 350.985 563.646C349.9 564.263 349.037 565.138 348.395 566.273C347.754 567.408 347.433 568.74 347.433 570.269C347.433 571.774 347.754 573.106 348.395 574.265C349.037 575.4 349.9 576.288 350.985 576.929C352.071 577.546 353.292 577.854 354.648 577.854ZM373.345 580L366.019 560.575H368.535L375.195 578.594H374.048L380.893 560.575H383.15L389.921 578.594H388.774L395.545 560.575H397.95L390.587 580H388.108L381.596 563.054H382.373L375.824 580H373.345ZM409.614 580.185C407.592 580.185 405.816 579.766 404.286 578.927C402.757 578.064 401.561 576.892 400.697 575.412C399.834 573.907 399.402 572.193 399.402 570.269C399.402 568.345 399.809 566.643 400.623 565.163C401.462 563.683 402.597 562.524 404.027 561.685C405.483 560.822 407.111 560.39 408.911 560.39C410.737 560.39 412.352 560.809 413.758 561.648C415.189 562.462 416.311 563.621 417.125 565.126C417.939 566.606 418.346 568.32 418.346 570.269C418.346 570.392 418.334 570.528 418.309 570.676C418.309 570.799 418.309 570.935 418.309 571.083H401.4V569.122H416.903L415.867 569.899C415.867 568.493 415.559 567.247 414.942 566.162C414.35 565.052 413.536 564.189 412.5 563.572C411.464 562.955 410.268 562.647 408.911 562.647C407.579 562.647 406.383 562.955 405.322 563.572C404.262 564.189 403.435 565.052 402.843 566.162C402.251 567.272 401.955 568.542 401.955 569.973V570.38C401.955 571.86 402.276 573.167 402.917 574.302C403.583 575.412 404.496 576.288 405.655 576.929C406.839 577.546 408.184 577.854 409.688 577.854C410.872 577.854 411.97 577.644 412.981 577.225C414.017 576.806 414.905 576.164 415.645 575.301L417.125 577.003C416.262 578.039 415.177 578.828 413.869 579.371C412.587 579.914 411.168 580.185 409.614 580.185ZM423.693 580V560.575H426.209V565.866L425.95 564.941C426.493 563.461 427.406 562.339 428.688 561.574C429.971 560.785 431.562 560.39 433.461 560.39V562.943C433.363 562.943 433.264 562.943 433.165 562.943C433.067 562.918 432.968 562.906 432.869 562.906C430.822 562.906 429.219 563.535 428.059 564.793C426.9 566.026 426.32 567.79 426.32 570.084V580H423.693ZM438.255 580V560.575H440.882V580H438.255ZM439.587 556.283C439.044 556.283 438.588 556.098 438.218 555.728C437.848 555.358 437.663 554.914 437.663 554.396C437.663 553.878 437.848 553.446 438.218 553.101C438.588 552.731 439.044 552.546 439.587 552.546C440.129 552.546 440.586 552.719 440.956 553.064C441.326 553.409 441.511 553.841 441.511 554.359C441.511 554.902 441.326 555.358 440.956 555.728C440.61 556.098 440.154 556.283 439.587 556.283ZM458.107 560.39C459.686 560.39 461.067 560.698 462.251 561.315C463.46 561.907 464.397 562.82 465.063 564.053C465.754 565.286 466.099 566.84 466.099 568.715V580H463.472V568.974C463.472 566.927 462.954 565.385 461.918 564.349C460.907 563.288 459.476 562.758 457.626 562.758C456.245 562.758 455.036 563.042 454 563.609C452.989 564.152 452.2 564.953 451.632 566.014C451.09 567.05 450.818 568.308 450.818 569.788V580H448.191V560.575H450.707V565.903L450.3 564.904C450.917 563.498 451.904 562.4 453.26 561.611C454.617 560.797 456.233 560.39 458.107 560.39ZM481.483 587.363C479.707 587.363 478.005 587.104 476.377 586.586C474.749 586.068 473.43 585.328 472.418 584.366L473.75 582.368C474.663 583.182 475.785 583.823 477.117 584.292C478.474 584.785 479.905 585.032 481.409 585.032C483.876 585.032 485.689 584.452 486.848 583.293C488.008 582.158 488.587 580.382 488.587 577.965V573.118L488.957 569.788L488.698 566.458V560.575H491.214V577.632C491.214 580.987 490.388 583.441 488.735 584.995C487.107 586.574 484.69 587.363 481.483 587.363ZM481.002 579.26C479.152 579.26 477.487 578.865 476.007 578.076C474.527 577.262 473.356 576.14 472.492 574.709C471.654 573.278 471.234 571.638 471.234 569.788C471.234 567.938 471.654 566.31 472.492 564.904C473.356 563.473 474.527 562.363 476.007 561.574C477.487 560.785 479.152 560.39 481.002 560.39C482.729 560.39 484.283 560.748 485.664 561.463C487.046 562.178 488.143 563.239 488.957 564.645C489.771 566.051 490.178 567.765 490.178 569.788C490.178 571.811 489.771 573.525 488.957 574.931C488.143 576.337 487.046 577.41 485.664 578.15C484.283 578.89 482.729 579.26 481.002 579.26ZM481.261 576.929C482.692 576.929 483.962 576.633 485.072 576.041C486.182 575.424 487.058 574.586 487.699 573.525C488.341 572.44 488.661 571.194 488.661 569.788C488.661 568.382 488.341 567.149 487.699 566.088C487.058 565.027 486.182 564.201 485.072 563.609C483.962 562.992 482.692 562.684 481.261 562.684C479.855 562.684 478.585 562.992 477.45 563.609C476.34 564.201 475.465 565.027 474.823 566.088C474.207 567.149 473.898 568.382 473.898 569.788C473.898 571.194 474.207 572.44 474.823 573.525C475.465 574.586 476.34 575.424 477.45 576.041C478.585 576.633 479.855 576.929 481.261 576.929ZM513.425 580.185C511.822 580.185 510.305 579.963 508.874 579.519C507.443 579.05 506.321 578.471 505.507 577.78L506.691 575.708C507.48 576.3 508.492 576.818 509.725 577.262C510.958 577.681 512.253 577.891 513.61 577.891C515.46 577.891 516.792 577.607 517.606 577.04C518.42 576.448 518.827 575.671 518.827 574.709C518.827 573.994 518.593 573.439 518.124 573.044C517.68 572.625 517.088 572.316 516.348 572.119C515.608 571.897 514.782 571.712 513.869 571.564C512.956 571.416 512.044 571.243 511.131 571.046C510.243 570.849 509.429 570.565 508.689 570.195C507.949 569.8 507.345 569.27 506.876 568.604C506.432 567.938 506.21 567.05 506.21 565.94C506.21 564.879 506.506 563.93 507.098 563.091C507.69 562.252 508.553 561.599 509.688 561.13C510.847 560.637 512.253 560.39 513.906 560.39C515.164 560.39 516.422 560.563 517.68 560.908C518.938 561.229 519.974 561.66 520.788 562.203L519.641 564.312C518.778 563.72 517.853 563.301 516.866 563.054C515.879 562.783 514.893 562.647 513.906 562.647C512.155 562.647 510.86 562.955 510.021 563.572C509.207 564.164 508.8 564.929 508.8 565.866C508.8 566.606 509.022 567.186 509.466 567.605C509.935 568.024 510.539 568.357 511.279 568.604C512.044 568.826 512.87 569.011 513.758 569.159C514.671 569.307 515.571 569.492 516.459 569.714C517.372 569.911 518.198 570.195 518.938 570.565C519.703 570.91 520.307 571.416 520.751 572.082C521.22 572.723 521.454 573.574 521.454 574.635C521.454 575.77 521.133 576.756 520.492 577.595C519.875 578.409 518.963 579.05 517.754 579.519C516.57 579.963 515.127 580.185 513.425 580.185ZM526.274 580V560.575H528.901V580H526.274ZM527.606 556.283C527.064 556.283 526.607 556.098 526.237 555.728C525.867 555.358 525.682 554.914 525.682 554.396C525.682 553.878 525.867 553.446 526.237 553.101C526.607 552.731 527.064 552.546 527.606 552.546C528.149 552.546 528.605 552.719 528.975 553.064C529.345 553.409 529.53 553.841 529.53 554.359C529.53 554.902 529.345 555.358 528.975 555.728C528.63 556.098 528.174 556.283 527.606 556.283ZM542.353 580.185C540.528 580.185 539.122 579.692 538.135 578.705C537.148 577.718 536.655 576.325 536.655 574.524V556.283H539.282V574.376C539.282 575.511 539.566 576.386 540.133 577.003C540.725 577.62 541.564 577.928 542.649 577.928C543.808 577.928 544.77 577.595 545.535 576.929L546.46 578.816C545.942 579.285 545.313 579.63 544.573 579.852C543.858 580.074 543.118 580.185 542.353 580.185ZM533.177 562.758V560.575H545.202V562.758H533.177ZM558.807 580.185C556.784 580.185 555.008 579.766 553.479 578.927C551.949 578.064 550.753 576.892 549.89 575.412C549.026 573.907 548.595 572.193 548.595 570.269C548.595 568.345 549.002 566.643 549.816 565.163C550.654 563.683 551.789 562.524 553.22 561.685C554.675 560.822 556.303 560.39 558.104 560.39C559.929 560.39 561.545 560.809 562.951 561.648C564.381 562.462 565.504 563.621 566.318 565.126C567.132 566.606 567.539 568.32 567.539 570.269C567.539 570.392 567.526 570.528 567.502 570.676C567.502 570.799 567.502 570.935 567.502 571.083H550.593V569.122H566.096L565.06 569.899C565.06 568.493 564.751 567.247 564.135 566.162C563.543 565.052 562.729 564.189 561.693 563.572C560.657 562.955 559.46 562.647 558.104 562.647C556.772 562.647 555.575 562.955 554.515 563.572C553.454 564.189 552.628 565.052 552.036 566.162C551.444 567.272 551.148 568.542 551.148 569.973V570.38C551.148 571.86 551.468 573.167 552.11 574.302C552.776 575.412 553.688 576.288 554.848 576.929C556.032 577.546 557.376 577.854 558.881 577.854C560.065 577.854 561.162 577.644 562.174 577.225C563.21 576.806 564.098 576.164 564.838 575.301L566.318 577.003C565.454 578.039 564.369 578.828 563.062 579.371C561.779 579.914 560.361 580.185 558.807 580.185ZM578.103 580.185C576.499 580.185 574.982 579.963 573.552 579.519C572.121 579.05 570.999 578.471 570.185 577.78L571.369 575.708C572.158 576.3 573.169 576.818 574.403 577.262C575.636 577.681 576.931 577.891 578.288 577.891C580.138 577.891 581.47 577.607 582.284 577.04C583.098 576.448 583.505 575.671 583.505 574.709C583.505 573.994 583.27 573.439 582.802 573.044C582.358 572.625 581.766 572.316 581.026 572.119C580.286 571.897 579.459 571.712 578.547 571.564C577.634 571.416 576.721 571.243 575.809 571.046C574.921 570.849 574.107 570.565 573.367 570.195C572.627 569.8 572.022 569.27 571.554 568.604C571.11 567.938 570.888 567.05 570.888 565.94C570.888 564.879 571.184 563.93 571.776 563.091C572.368 562.252 573.231 561.599 574.366 561.13C575.525 560.637 576.931 560.39 578.584 560.39C579.842 560.39 581.1 560.563 582.358 560.908C583.616 561.229 584.652 561.66 585.466 562.203L584.319 564.312C583.455 563.72 582.53 563.301 581.544 563.054C580.557 562.783 579.57 562.647 578.584 562.647C576.832 562.647 575.537 562.955 574.699 563.572C573.885 564.164 573.478 564.929 573.478 565.866C573.478 566.606 573.7 567.186 574.144 567.605C574.612 568.024 575.217 568.357 575.957 568.604C576.721 568.826 577.548 569.011 578.436 569.159C579.348 569.307 580.249 569.492 581.137 569.714C582.049 569.911 582.876 570.195 583.616 570.565C584.38 570.91 584.985 571.416 585.429 572.082C585.897 572.723 586.132 573.574 586.132 574.635C586.132 575.77 585.811 576.756 585.17 577.595C584.553 578.409 583.64 579.05 582.432 579.519C581.248 579.963 579.805 580.185 578.103 580.185ZM604.595 580L597.269 560.575H599.785L606.445 578.594H605.298L612.143 560.575H614.4L621.171 578.594H620.024L626.795 560.575H629.2L621.837 580H619.358L612.846 563.054H613.623L607.074 580H604.595ZM633.155 580V560.575H635.782V580H633.155ZM634.487 556.283C633.945 556.283 633.488 556.098 633.118 555.728C632.748 555.358 632.563 554.914 632.563 554.396C632.563 553.878 632.748 553.446 633.118 553.101C633.488 552.731 633.945 552.546 634.487 552.546C635.03 552.546 635.486 552.719 635.856 553.064C636.226 553.409 636.411 553.841 636.411 554.359C636.411 554.902 636.226 555.358 635.856 555.728C635.511 556.098 635.055 556.283 634.487 556.283ZM649.234 580.185C647.408 580.185 646.002 579.692 645.016 578.705C644.029 577.718 643.536 576.325 643.536 574.524V556.283H646.163V574.376C646.163 575.511 646.446 576.386 647.014 577.003C647.606 577.62 648.444 577.928 649.53 577.928C650.689 577.928 651.651 577.595 652.416 576.929L653.341 578.816C652.823 579.285 652.194 579.63 651.454 579.852C650.738 580.074 649.998 580.185 649.234 580.185ZM640.058 562.758V560.575H652.083V562.758H640.058ZM668.039 560.39C669.618 560.39 670.999 560.698 672.183 561.315C673.392 561.907 674.329 562.82 674.995 564.053C675.686 565.286 676.031 566.84 676.031 568.715V580H673.404V568.974C673.404 566.927 672.886 565.385 671.85 564.349C670.839 563.288 669.408 562.758 667.558 562.758C666.177 562.758 664.968 563.042 663.932 563.609C662.921 564.152 662.131 564.953 661.564 566.014C661.021 567.05 660.75 568.308 660.75 569.788V580H658.123V552.546H660.75V565.903L660.232 564.904C660.849 563.498 661.835 562.4 663.192 561.611C664.549 560.797 666.164 560.39 668.039 560.39ZM693.365 580V554.1H696.103V580H693.365ZM713.892 560.39C715.47 560.39 716.852 560.698 718.036 561.315C719.244 561.907 720.182 562.82 720.848 564.053C721.538 565.286 721.884 566.84 721.884 568.715V580H719.257V568.974C719.257 566.927 718.739 565.385 717.703 564.349C716.691 563.288 715.261 562.758 713.411 562.758C712.029 562.758 710.821 563.042 709.785 563.609C708.773 564.152 707.984 564.953 707.417 566.014C706.874 567.05 706.603 568.308 706.603 569.788V580H703.976V560.575H706.492V565.903L706.085 564.904C706.701 563.498 707.688 562.4 709.045 561.611C710.401 560.797 712.017 560.39 713.892 560.39ZM735.121 580.185C733.296 580.185 731.89 579.692 730.903 578.705C729.917 577.718 729.423 576.325 729.423 574.524V556.283H732.05V574.376C732.05 575.511 732.334 576.386 732.901 577.003C733.493 577.62 734.332 577.928 735.417 577.928C736.577 577.928 737.539 577.595 738.303 576.929L739.228 578.816C738.71 579.285 738.081 579.63 737.341 579.852C736.626 580.074 735.886 580.185 735.121 580.185ZM725.945 562.758V560.575H737.97V562.758H725.945ZM751.575 580.185C749.552 580.185 747.776 579.766 746.247 578.927C744.718 578.064 743.521 576.892 742.658 575.412C741.795 573.907 741.363 572.193 741.363 570.269C741.363 568.345 741.77 566.643 742.584 565.163C743.423 563.683 744.557 562.524 745.988 561.685C747.443 560.822 749.071 560.39 750.872 560.39C752.697 560.39 754.313 560.809 755.719 561.648C757.15 562.462 758.272 563.621 759.086 565.126C759.9 566.606 760.307 568.32 760.307 570.269C760.307 570.392 760.295 570.528 760.27 570.676C760.27 570.799 760.27 570.935 760.27 571.083H743.361V569.122H758.864L757.828 569.899C757.828 568.493 757.52 567.247 756.903 566.162C756.311 565.052 755.497 564.189 754.461 563.572C753.425 562.955 752.229 562.647 750.872 562.647C749.54 562.647 748.344 562.955 747.283 563.572C746.222 564.189 745.396 565.052 744.804 566.162C744.212 567.272 743.916 568.542 743.916 569.973V570.38C743.916 571.86 744.237 573.167 744.878 574.302C745.544 575.412 746.457 576.288 747.616 576.929C748.8 577.546 750.144 577.854 751.649 577.854C752.833 577.854 753.931 577.644 754.942 577.225C755.978 576.806 756.866 576.164 757.606 575.301L759.086 577.003C758.223 578.039 757.137 578.828 755.83 579.371C754.547 579.914 753.129 580.185 751.575 580.185ZM765.654 580V552.546H768.281V580H765.654ZM775.591 580V552.546H778.218V580H775.591ZM785.527 580V560.575H788.154V580H785.527ZM786.859 556.283C786.317 556.283 785.86 556.098 785.49 555.728C785.12 555.358 784.935 554.914 784.935 554.396C784.935 553.878 785.12 553.446 785.49 553.101C785.86 552.731 786.317 552.546 786.859 552.546C787.402 552.546 787.858 552.719 788.228 553.064C788.598 553.409 788.783 553.841 788.783 554.359C788.783 554.902 788.598 555.358 788.228 555.728C787.883 556.098 787.427 556.283 786.859 556.283ZM803.752 587.363C801.976 587.363 800.274 587.104 798.646 586.586C797.018 586.068 795.698 585.328 794.687 584.366L796.019 582.368C796.931 583.182 798.054 583.823 799.386 584.292C800.742 584.785 802.173 585.032 803.678 585.032C806.144 585.032 807.957 584.452 809.117 583.293C810.276 582.158 810.856 580.382 810.856 577.965V573.118L811.226 569.788L810.967 566.458V560.575H813.483V577.632C813.483 580.987 812.656 583.441 811.004 584.995C809.376 586.574 806.958 587.363 803.752 587.363ZM803.271 579.26C801.421 579.26 799.756 578.865 798.276 578.076C796.796 577.262 795.624 576.14 794.761 574.709C793.922 573.278 793.503 571.638 793.503 569.788C793.503 567.938 793.922 566.31 794.761 564.904C795.624 563.473 796.796 562.363 798.276 561.574C799.756 560.785 801.421 560.39 803.271 560.39C804.997 560.39 806.551 560.748 807.933 561.463C809.314 562.178 810.412 563.239 811.226 564.645C812.04 566.051 812.447 567.765 812.447 569.788C812.447 571.811 812.04 573.525 811.226 574.931C810.412 576.337 809.314 577.41 807.933 578.15C806.551 578.89 804.997 579.26 803.271 579.26ZM803.53 576.929C804.96 576.929 806.231 576.633 807.341 576.041C808.451 575.424 809.326 574.586 809.968 573.525C810.609 572.44 810.93 571.194 810.93 569.788C810.93 568.382 810.609 567.149 809.968 566.088C809.326 565.027 808.451 564.201 807.341 563.609C806.231 562.992 804.96 562.684 803.53 562.684C802.124 562.684 800.853 562.992 799.719 563.609C798.609 564.201 797.733 565.027 797.092 566.088C796.475 567.149 796.167 568.382 796.167 569.788C796.167 571.194 796.475 572.44 797.092 573.525C797.733 574.586 798.609 575.424 799.719 576.041C800.853 576.633 802.124 576.929 803.53 576.929ZM829.044 580.185C827.021 580.185 825.245 579.766 823.716 578.927C822.187 578.064 820.99 576.892 820.127 575.412C819.264 573.907 818.832 572.193 818.832 570.269C818.832 568.345 819.239 566.643 820.053 565.163C820.892 563.683 822.026 562.524 823.457 561.685C824.912 560.822 826.54 560.39 828.341 560.39C830.166 560.39 831.782 560.809 833.188 561.648C834.619 562.462 835.741 563.621 836.555 565.126C837.369 566.606 837.776 568.32 837.776 570.269C837.776 570.392 837.764 570.528 837.739 570.676C837.739 570.799 837.739 570.935 837.739 571.083H820.83V569.122H836.333L835.297 569.899C835.297 568.493 834.989 567.247 834.372 566.162C833.78 565.052 832.966 564.189 831.93 563.572C830.894 562.955 829.698 562.647 828.341 562.647C827.009 562.647 825.813 562.955 824.752 563.572C823.691 564.189 822.865 565.052 822.273 566.162C821.681 567.272 821.385 568.542 821.385 569.973V570.38C821.385 571.86 821.706 573.167 822.347 574.302C823.013 575.412 823.926 576.288 825.085 576.929C826.269 577.546 827.613 577.854 829.118 577.854C830.302 577.854 831.4 577.644 832.411 577.225C833.447 576.806 834.335 576.164 835.075 575.301L836.555 577.003C835.692 578.039 834.606 578.828 833.299 579.371C832.016 579.914 830.598 580.185 829.044 580.185ZM853.039 560.39C854.618 560.39 855.999 560.698 857.183 561.315C858.392 561.907 859.329 562.82 859.995 564.053C860.686 565.286 861.031 566.84 861.031 568.715V580H858.404V568.974C858.404 566.927 857.886 565.385 856.85 564.349C855.839 563.288 854.408 562.758 852.558 562.758C851.177 562.758 849.968 563.042 848.932 563.609C847.921 564.152 847.131 564.953 846.564 566.014C846.021 567.05 845.75 568.308 845.75 569.788V580H843.123V560.575H845.639V565.903L845.232 564.904C845.849 563.498 846.835 562.4 848.192 561.611C849.549 560.797 851.164 560.39 853.039 560.39ZM876.193 580.185C874.269 580.185 872.542 579.766 871.013 578.927C869.508 578.064 868.324 576.892 867.461 575.412C866.598 573.907 866.166 572.193 866.166 570.269C866.166 568.32 866.598 566.606 867.461 565.126C868.324 563.646 869.508 562.487 871.013 561.648C872.542 560.809 874.269 560.39 876.193 560.39C877.846 560.39 879.338 560.711 880.67 561.352C882.002 561.993 883.05 562.955 883.815 564.238L881.854 565.57C881.188 564.583 880.362 563.856 879.375 563.387C878.388 562.918 877.315 562.684 876.156 562.684C874.775 562.684 873.529 563.005 872.419 563.646C871.309 564.263 870.433 565.138 869.792 566.273C869.151 567.408 868.83 568.74 868.83 570.269C868.83 571.798 869.151 573.13 869.792 574.265C870.433 575.4 871.309 576.288 872.419 576.929C873.529 577.546 874.775 577.854 876.156 577.854C877.315 577.854 878.388 577.62 879.375 577.151C880.362 576.682 881.188 575.967 881.854 575.005L883.815 576.337C883.05 577.595 882.002 578.557 880.67 579.223C879.338 579.864 877.846 580.185 876.193 580.185ZM896.901 580.185C894.879 580.185 893.103 579.766 891.573 578.927C890.044 578.064 888.848 576.892 887.984 575.412C887.121 573.907 886.689 572.193 886.689 570.269C886.689 568.345 887.096 566.643 887.91 565.163C888.749 563.683 889.884 562.524 891.314 561.685C892.77 560.822 894.398 560.39 896.198 560.39C898.024 560.39 899.639 560.809 901.045 561.648C902.476 562.462 903.598 563.621 904.412 565.126C905.226 566.606 905.633 568.32 905.633 570.269C905.633 570.392 905.621 570.528 905.596 570.676C905.596 570.799 905.596 570.935 905.596 571.083H888.687V569.122H904.19L903.154 569.899C903.154 568.493 902.846 567.247 902.229 566.162C901.637 565.052 900.823 564.189 899.787 563.572C898.751 562.955 897.555 562.647 896.198 562.647C894.866 562.647 893.67 562.955 892.609 563.572C891.549 564.189 890.722 565.052 890.13 566.162C889.538 567.272 889.242 568.542 889.242 569.973V570.38C889.242 571.86 889.563 573.167 890.204 574.302C890.87 575.412 891.783 576.288 892.942 576.929C894.126 577.546 895.471 577.854 896.975 577.854C898.159 577.854 899.257 577.644 900.268 577.225C901.304 576.806 902.192 576.164 902.932 575.301L904.412 577.003C903.549 578.039 902.464 578.828 901.156 579.371C899.874 579.914 898.455 580.185 896.901 580.185Z" fill="white"/>
<path d="M83.564 500V391.42C83.564 377.417 86.8867 364.601 93.532 352.972C100.177 341.105 109.789 331.731 122.368 324.848C134.947 317.728 150.017 314.168 167.58 314.168C176.124 314.168 184.312 315.236 192.144 317.372C199.976 319.508 207.215 322.949 213.86 327.696C220.743 332.205 226.557 337.901 231.304 344.784H231.66C236.407 337.901 242.103 332.205 248.748 327.696C255.631 322.949 262.988 319.508 270.82 317.372C278.889 315.236 287.196 314.168 295.74 314.168C313.54 314.168 328.611 317.728 340.952 324.848C353.531 331.731 363.143 341.105 369.788 352.972C376.433 364.601 379.756 377.417 379.756 391.42V500H339.172V391.42C339.172 383.588 337.155 376.468 333.12 370.06C329.323 363.652 324.22 358.549 317.812 354.752C311.404 350.955 304.047 349.056 295.74 349.056C287.671 349.056 280.313 350.955 273.668 354.752C267.023 358.549 261.683 363.652 257.648 370.06C253.851 376.468 251.952 383.588 251.952 391.42V500H211.368V391.42C211.368 383.588 209.351 376.468 205.316 370.06C201.281 363.652 195.941 358.549 189.296 354.752C182.888 350.955 175.649 349.056 167.58 349.056C159.511 349.056 152.153 350.955 145.508 354.752C139.1 358.549 133.879 363.652 129.844 370.06C126.047 376.468 124.148 383.588 124.148 391.42V500H83.564ZM428.787 500V318.44H469.727V500H428.787ZM449.079 293.164C441.959 293.164 435.788 290.553 430.567 285.332C425.345 280.111 422.735 273.94 422.735 266.82C422.735 259.7 425.345 253.529 430.567 248.308C435.788 243.087 441.959 240.476 449.079 240.476C456.436 240.476 462.607 243.087 467.591 248.308C472.812 253.529 475.423 259.7 475.423 266.82C475.423 273.94 472.812 280.111 467.591 285.332C462.607 290.553 456.436 293.164 449.079 293.164ZM518.83 500V391.42C518.83 377.417 522.152 364.601 528.798 352.972C535.443 341.105 545.055 331.731 557.634 324.848C570.212 317.728 585.283 314.168 602.846 314.168C611.39 314.168 619.578 315.236 627.41 317.372C635.242 319.508 642.48 322.949 649.126 327.696C656.008 332.205 661.823 337.901 666.57 344.784H666.926C671.672 337.901 677.368 332.205 684.014 327.696C690.896 322.949 698.254 319.508 706.086 317.372C714.155 315.236 722.462 314.168 731.006 314.168C748.806 314.168 763.876 317.728 776.218 324.848C788.796 331.731 798.408 341.105 805.054 352.972C811.699 364.601 815.022 377.417 815.022 391.42V500H774.438V391.42C774.438 383.588 772.42 376.468 768.386 370.06C764.588 363.652 759.486 358.549 753.078 354.752C746.67 350.955 739.312 349.056 731.006 349.056C722.936 349.056 715.579 350.955 708.934 354.752C702.288 358.549 696.948 363.652 692.914 370.06C689.116 376.468 687.218 383.588 687.218 391.42V500H646.634V391.42C646.634 383.588 644.616 376.468 640.582 370.06C636.547 363.652 631.207 358.549 624.562 354.752C618.154 350.955 610.915 349.056 602.846 349.056C594.776 349.056 587.419 350.955 580.774 354.752C574.366 358.549 569.144 363.652 565.11 370.06C561.312 376.468 559.414 383.588 559.414 391.42V500H518.83ZM864.052 500V318.44H904.992V500H864.052ZM884.344 293.164C877.224 293.164 871.054 290.553 865.832 285.332C860.611 280.111 858 273.94 858 266.82C858 259.7 860.611 253.529 865.832 248.308C871.054 243.087 877.224 240.476 884.344 240.476C891.702 240.476 897.872 243.087 902.856 248.308C908.078 253.529 910.688 259.7 910.688 266.82C910.688 273.94 908.078 280.111 902.856 285.332C897.872 290.553 891.702 293.164 884.344 293.164Z" fill="url(#paint0_linear_1479_221)"/>
<defs>
<linearGradient id="paint0_linear_1479_221" x1="1402.93" y1="58" x2="427.618" y2="508.511" gradientUnits="userSpaceOnUse">
<stop stop-color="#FFF501"/>
<stop offset="1" stop-color="#FE9300"/>
</linearGradient>
</defs>
</svg>